<svg xmlns="http://www.w3.org/2000/svg"><defs><g id="i0" data-shape="17707c8af48b7d6f8ac6946a9bcc003b7de9714e98a118d07f3a71d1130059d5"><path d="M3 6a2 2 0 0 1 2-2h5l2 3h7a2 2 0 0 1 2 2v10a2 2 0 0 1-2 2H5a2 2 0 0 1-2-2V6Z"></path></g><g id="i1" data-shape="189a349cd6d4d2615eeb2e2f36b15057c51b14f03fccff1510c53f04ab52d43a"><path d="M3 9h18v4H3zM5 13v8h14v-8M12 9v12"></path><path d="M12 9C4 9 4 3 7 3c3 0 5 6 5 6Zm0 0c8 0 8-6 5-6-3 0-5 6-5 6Z"></path></g><g id="i10" data-shape="73f7e5f1e0c049a368993e486e67fedc53ece5ad6c89f4943aac623be2eb5298"><path d="m12 2 3 7 7 3-7 3-3 7-3-7-7-3 7-3ZM20 2v4m-2-2h4"></path></g><g id="i11" data-shape="78ff35891f06a57e58c3a24df4ec6855e6cbc9440e3477146b227e9bb65420a6"><rect x="3" y="3" width="18" height="18" rx="4"></rect><circle cx="8" cy="8" r="1.5"></circle><path d="m3 17 6-6 4 4 3-3 5 5"></path></g><g id="i12" data-shape="7c02cec469fc2c79c0d54099ce9224e5a7d56a27346356a0a8d8af3c312b57e2"><circle cx="12" cy="4" r="3"></circle><circle cx="4" cy="19" r="3"></circle><circle cx="20" cy="19" r="3"></circle><path d="m10 6-5 10m9-10 5 10M7 19h10"></path></g><g id="i13" data-shape="813ab90a73eb906e549407e2e7c4a1c8112ec6743f900179efb2ee250ad2d964"><path d="m12 3 2.3 6.7L21 12l-6.7 2.3L12 21l-2.3-6.7L3 12l6.7-2.3L12 3Z"></path></g><g id="i14" data-shape="8392e54dde0836bf7f92dca3a823cc997a72009c9e7b27a507810bce5e4ea088"><path d="M7 19 3 21V7a4 4 0 0 1 4-4h10a4 4 0 0 1 4 4v8a4 4 0 0 1-4 4ZM7 8h10M7 12h7"></path></g><g id="i15" data-shape="8a90e2833b3d7091458beb20841de59e684570f8bd61ab09d7c05f23731ac97e"><path d="M9 6h12M9 12h12M9 18h12M3 6h1M3 12h1M3 18h1"></path></g><g id="i16" data-shape="90bc7e81e617e1869e09ecc1564353644b238220f9846d11fd5e31c9e450f580"><circle cx="10.5" cy="10.5" r="6.5"></circle><path d="m16 16 5 5"></path></g><g id="i17" data-shape="971ec06628a995e8fcea82eff83d0e15613ad8a82b44e7f9d59403043a924b90"><path d="M10 17V5l10-2v12M10 7l10-2"></path><ellipse cx="6.5" cy="18" rx="3.5" ry="3"></ellipse><ellipse cx="16.5" cy="16" rx="3.5" ry="3"></ellipse></g><g id="i18" data-shape="98db998d775b0455f0ce4459168ce3c82d53785e315c8442ae5c1c4745dd2d09"><path d="M3 4c4-1 6 0 9 2 3-2 5-3 9-2v15c-4-1-6 0-9 2-3-2-5-3-9-2V4Z"></path><path d="M12 6v15"></path></g><g id="i19" data-shape="99759f76213cd57e8cc1505da733c7fa23a3939970efd2a854696de21195675d"><path d="M7 17 17 7M7 7h10v10" fill="none" stroke="currentColor" stroke-width="1.6"></path></g><g id="i1a" data-shape="a1c079c4cd90389a077208edb1db2ade741c13e2262e959ad8d466f1a679e225"><path d="m2 9 10-5 10 5-10 5ZM6 11v6c4 3 8 3 12 0v-6M22 9v8"></path></g><g id="i1b" data-shape="ae136bfe077fc9aec25a64ba1c148eac64134cea42cffa101b27a361f127242a"><rect x="3" y="5" width="14" height="14" rx="4"></rect><path d="m17 10 4-3v10l-4-3M9 9l4 3-4 3Z"></path></g><g id="i1c" data-shape="c101846c573e7973d91b5161f7cef965ef4f5b137c59e983f5a8f3b6cc551a0f"><path d="M4 5h16M12 5v15M8 20h8M4 9V5M20 9V5"></path></g><g id="i1d" data-shape="c2d2408c32fdf824ee5244f084f5e98b8e64a62cc66139963bd0fe34e229586d"><path d="m9 3 9 3-3 5 1 4-5-2-4 3-2-2 4-3-1-4 1-4ZM11 14l-6 7"></path></g><g id="i1e" data-shape="c32e1cc158a81db8f5d8a6dc02bfd283cee336a82c3f61cf8e8a42b64fb1c352"><rect x="3" y="5" width="13" height="14" rx="3"></rect><path d="m16 10 5-3v10l-5-3"></path></g><g id="i1f" data-shape="c4eb1fbdb4d40e2c585eb0a1e0e5cd26325c1a1c209595005e279fe890351e3b"><rect x="3" y="7" width="18" height="14" rx="3"></rect><path d="M8 7V4a1 1 0 0 1 1-1h6a1 1 0 0 1 1 1v3M3 13h18M10 13v3h4v-3"></path></g><g id="i2" data-shape="1d49ff39392c38ab86588f86f844652247fed485fcf42d13c76f8b61e62c552e"><path d="M14 2H6a2 2 0 0 0-2 2v16a2 2 0 0 0 2 2h12a2 2 0 0 0 2-2V8ZM14 2v6h6M8 13h8M8 17h6"></path></g><g id="i20" data-shape="c931a6f031e52aaee8d36daa3f2dfc931b72a8bf996fd7e359b7c3b16dd831c2"><path d="M7 7h10c4 0 6 11 3 13-2 1-4-4-6-4h-4c-2 0-4 5-6 4C1 18 3 7 7 7ZM7 10v6M4 13h6"></path><circle cx="16" cy="11" r="1"></circle><circle cx="19" cy="14" r="1"></circle></g><g id="i21" data-shape="cb5885072a661366351ef03b27e50c9016c1eca3afd4a1285b420044ece56698"><rect x="3" y="3" width="18" height="13" rx="2"></rect><path d="M12 16v5m-4 0 4-5 4 5M7 8h4M7 11h8"></path></g><g id="i22" data-shape="ce7ae42e3904d414943515d955be4474b1ed476877de1a3687a079054cba203c"><path d="M6 3h12v18l-6-4-6 4Z"></path></g><g id="i23" data-shape="d88b3cfbb84365f3d1aede4865091aa00601fc5056ba39433e52b0f6431a7635"><path d="M20.8 13.5A9 9 0 0 1 10.5 3.2a9 9 0 1 0 10.3 10.3Z"></path></g><g id="i24" data-shape="d9e3dd990980c1d2fc56a745d9b0969ab206cb3b87eb2520f69884f3140ec89f"><rect x="2" y="3" width="20" height="18" rx="3"></rect><path d="M2 9h20M6 6h.01M10 6h.01M7 13h10M7 17h6"></path></g><g id="i25" data-shape="e14eba7bf91ac37e2b0cea3dfabdfdb59f508dbac52fa2414dfbd24c77b54a5e"><path d="M12 3v12m-5-5 5 5 5-5M4 16v5h16v-5"></path></g><g id="i26" data-shape="ea740c9f0aa192dd13c393239ad39a6659ffa18c5698e12c04f5525fe2a48261"><path d="M12 5v14M5 12h14"></path></g><g id="i27" data-shape="eb940abf31ddf1814f61a415d7fb29bb406c410328375f29b7d4dd542c4782ae"><path d="M6 4a1 1 0 0 1 1-1h10a1 1 0 0 1 1 1v17l-6-4-6 4V4Z"></path></g><g id="i28" data-shape="ec43481f1291437116b3c0fc3a185900b06ddb1a94df2e94100bcfe3b02efab1"><rect x="8" y="2" width="8" height="13" rx="4"></rect><path d="M5 11v1a7 7 0 0 0 14 0v-1M12 19v3M8 22h8"></path></g><g id="i29" data-shape="ed25aed8094b3616f34a7a27ea58608322f326123aeca36e9179c3dcf7bda02b"><rect x="2" y="4" width="20" height="16" rx="3"></rect><path d="m2 6 10 7L22 6"></path></g><g id="i2a" data-shape="ee20480db6bd90cada3e74087f90c7fda3f89b928c2dc9e2af2121c0dca7d1ed"><path d="m8 6-6 6 6 6m8-12 6 6-6 6M14 3l-4 18"></path></g><g id="i2b" data-shape="f20b94df6526c31c01c30fb014860dec02e5fc75f4ead5ca7fa173d9b541b028"><rect x="3" y="5" width="18" height="15" rx="3"></rect><path d="M3 8h18M17 12h4v4h-4a2 2 0 0 1 0-4Z"></path></g><g id="i2c" data-shape="f7b098ef2ccb800e3d6a43ffcc276b601d71d8d18e9bde8f181b9564dace7b86"><path d="M7 17 17 7M7 7h10v10" fill="none" stroke="currentColor" stroke-width="1.6" stroke-linecap="round" stroke-linejoin="round"></path></g><g id="i2d" data-shape="fbed3d857df8229f32f02b9ac6f8bb5b48ee849ba9b7b2068f99ee6781e73758"><path d="M3 3v18h18M7 17v-5M12 17V8M17 17V4"></path></g><g id="i2e" data-shape="fe7bb2a8cdcdf9d9865e048967232d88c54b787e3590125de758e3e2e78a1627"><rect x="4" y="7" width="16" height="14" rx="3"></rect><path d="M12 7V3M10 3h4M2 12v4M22 12v4M9 16h6"></path><circle cx="8" cy="11" r=".5"></circle><circle cx="16" cy="11" r=".5"></circle></g><g id="i3" data-shape="207534ed351f642ba328874b1e57fcc7ee67d4cdbcc774a239ee498c19b75cd8"><path d="M4 6h16M4 12h16M4 18h16"></path></g><g id="i4" data-shape="23f2635225c5ebfa3cdfe78764bc2dfa1baa72029ede2c88a0bd6434d1cdee90"><path d="m12 2 9 5v10l-9 5-9-5V7ZM3 7l9 5 9-5M12 12v10M7 4l10 6"></path></g><g id="i5" data-shape="4176570a68188da86ce5eb29b3ed9a3af571456083730283646332e32231f104"><path d="M4 10v4M8 6v12M12 3v18M16 7v10M20 10v4"></path></g><g id="i6" data-shape="4487acc202263362e19d2f2a1de5e2c4962aa00e3dd7c5486197d1bb86d3c2e2"><path d="M20 4a5 5 0 0 0-8 1 5 5 0 0 0-8-1c-4 4-1 9 8 16 9-7 12-12 8-16ZM8 11h3l1-3 2 6 1-3h3"></path></g><g id="i7" data-shape="4d0a9eda103392f7800719fdca16b4d623d9a67a5c225b3a415994d3ad04afbe"><circle cx="10" cy="10" r="7"></circle><path d="m15 15 7 7M7 10h6M10 7v6"></path></g><g id="i9" data-shape="51fe7cf05176ff009a07cce0513301e44d34cfafbe9baa8b7956909978039b40"><path d="m12 2 3 6 7 1-5 5 1 7-6-3-6 3 1-7-5-5 7-1 3-6Z"></path></g><g id="ia" data-shape="5802f80a83a08246aa31da0345d1cff2a1cc7a8188a77f1f93ad226480d158a9"><path d="m14 4 6 6M3 21l5-1L21 7a3 3 0 0 0-4-4L4 16ZM4 16l4 4"></path></g><g id="ib" data-shape="60230abcebbcf78c43cf80024c11a3226a771d4010173717944c3c1335f87904"><path d="m12 3 10 6-10 6L2 9l10-6ZM2 13l10 6 10-6M2 17l10 6 10-6"></path></g><g id="ic" data-shape="63db0e134a2c6766c5f69232aa8c740fa6e3f74dcc07a20ef076f3673bb90e01"><rect x="3" y="3" width="7" height="7" rx="1.5"></rect><rect x="14" y="3" width="7" height="7" rx="1.5"></rect><rect x="3" y="14" width="7" height="7" rx="1.5"></rect><rect x="14" y="14" width="7" height="7" rx="1.5"></rect></g><g id="id" data-shape="67ada2ac70d88971612cbcfb7a089614012b62fbcb8939db84f7ee129fb68dbc"><path d="M12 3a9 9 0 1 0 0 18h2a2 2 0 0 0 0-4h-1a2 2 0 0 1 0-4h5a3 3 0 0 0 3-3c0-4-4-7-9-7Z"></path><circle cx="7" cy="9" r="1"></circle><circle cx="11" cy="6" r="1"></circle><circle cx="16" cy="7" r="1"></circle></g><g id="ie" data-shape="6f77f53366cff5beac986d9a06f79982c28193741e51e6b1d9c40d472e584adb"><rect x="3" y="7" width="18" height="14" rx="3"></rect><path d="M8 7V3h8v4M3 12c5 4 13 4 18 0M10 13h4v4h-4z"></path></g><g id="if" data-shape="70d16e86848685c6e70aa3a60ee7c73f16140c1c6c68dd3270d6091c6859d15d"><rect x="3" y="3" width="18" height="18" rx="3"></rect><circle cx="9" cy="9" r="2"></circle><path d="m3 17 5-5 4 4 4-6 5 7"></path></g></defs></svg>